<?xml version="1.0" encoding="UTF-8" standalone="no"?>
<svg
   width="128"
   height="128"
   id="svg11300"
   version="1.0"
   style="display:inline;enable-background:new"
   viewBox="0 0 128 128"
   xmlns:xlink="http://www.w3.org/1999/xlink"
   xmlns="http://www.w3.org/2000/svg"
   xmlns:svg="http://www.w3.org/2000/svg"
   xmlns:rdf="http://www.w3.org/1999/02/22-rdf-syntax-ns#"
   xmlns:cc="http://creativecommons.org/ns#"
   xmlns:dc="http://purl.org/dc/elements/1.1/">
  <title
     id="title4162">Adwaita Icon Template</title>
  <defs
     id="defs3">
    <linearGradient
       id="linearGradient2124">
      <stop
         id="stop2116"
         offset="0"
         style="stop-color:#cca866;stop-opacity:1" />
      <stop
         id="stop2122"
         offset="1"
         style="stop-color:#956e32;stop-opacity:1" />
    </linearGradient>
    <linearGradient
       id="linearGradient2114">
      <stop
         style="stop-color:#f8eddd;stop-opacity:1"
         offset="0"
         id="stop2106" />
      <stop
         id="stop2108"
         offset="0.25891709"
         style="stop-color:#f5e5ce;stop-opacity:1" />
      <stop
         style="stop-color:#d5c2a9;stop-opacity:1"
         offset="0.73756379"
         id="stop2110" />
      <stop
         style="stop-color:#b19368;stop-opacity:1"
         offset="1"
         id="stop2112" />
    </linearGradient>
    <linearGradient
       id="linearGradient2104">
      <stop
         id="stop2096"
         offset="0"
         style="stop-color:#ceb897;stop-opacity:1" />
      <stop
         style="stop-color:#fcf6ee;stop-opacity:1"
         offset="0.49999997"
         id="stop2098" />
      <stop
         id="stop2100"
         offset="0.8923651"
         style="stop-color:#c7ac8a;stop-opacity:1" />
      <stop
         id="stop2102"
         offset="1"
         style="stop-color:#ba9d78;stop-opacity:1" />
    </linearGradient>
    <linearGradient
       id="linearGradient1202">
      <stop
         id="stop1194"
         offset="0"
         style="stop-color:#f8f0dd;stop-opacity:1" />
      <stop
         style="stop-color:#f5eace;stop-opacity:1"
         offset="0.25891709"
         id="stop1196" />
      <stop
         id="stop1198"
         offset="0.73756379"
         style="stop-color:#c1af83;stop-opacity:1" />
      <stop
         id="stop1200"
         offset="1"
         style="stop-color:#aa935a;stop-opacity:1" />
    </linearGradient>
    <linearGradient
       id="linearGradient1192">
      <stop
         style="stop-color:#dc9393;stop-opacity:1"
         offset="0"
         id="stop1184" />
      <stop
         style="stop-color:#9d4343;stop-opacity:1"
         offset="0.54545462"
         id="stop1188" />
      <stop
         style="stop-color:#812727;stop-opacity:1"
         offset="1"
         id="stop1190" />
    </linearGradient>
    <linearGradient
       id="linearGradient1164">
      <stop
         style="stop-color:#fcf8ee;stop-opacity:1;"
         offset="0"
         id="stop1156" />
      <stop
         id="stop1158"
         offset="0.25891709"
         style="stop-color:#f5eace;stop-opacity:1" />
      <stop
         style="stop-color:#c1af83;stop-opacity:1"
         offset="0.73756379"
         id="stop1160" />
      <stop
         style="stop-color:#b09963;stop-opacity:1"
         offset="1"
         id="stop1162" />
    </linearGradient>
    <linearGradient
       y2="236"
       x2="96"
       y1="236"
       x1="32"
       gradientTransform="translate(604.81684,170.58641)"
       gradientUnits="userSpaceOnUse"
       id="linearGradient1099"
       xlink:href="#linearGradient1036" />
    <linearGradient
       id="linearGradient1036">
      <stop
         id="stop1032"
         offset="0"
         style="stop-color:#d5d3cf;stop-opacity:1;" />
      <stop
         id="stop1034"
         offset="1"
         style="stop-color:#f6f5f4;stop-opacity:1" />
    </linearGradient>
    <radialGradient
       r="32"
       fy="-76"
       fx="-244"
       cy="-76"
       cx="-244"
       gradientTransform="matrix(0.88333331,0,0,0.88333331,-460.35018,463.11973)"
       gradientUnits="userSpaceOnUse"
       id="radialGradient1103"
       xlink:href="#linearGradient1069" />
    <linearGradient
       id="linearGradient1069">
      <stop
         id="stop1065"
         offset="0"
         style="stop-color:#d5d3cf;stop-opacity:1" />
      <stop
         id="stop1067-1"
         offset="1"
         style="stop-color:#949390;stop-opacity:1" />
    </linearGradient>
    <linearGradient
       gradientUnits="userSpaceOnUse"
       y2="232"
       x2="64"
       y1="262.5"
       x1="64"
       id="linearGradient1027"
       xlink:href="#linearGradient1025"
       gradientTransform="translate(-470.5864,432.81685)" />
    <linearGradient
       id="linearGradient1025">
      <stop
         id="stop1021"
         offset="0"
         style="stop-color:#9a9996;stop-opacity:1" />
      <stop
         id="stop1023"
         offset="1"
         style="stop-color:#77767b;stop-opacity:1" />
    </linearGradient>
    <clipPath
       clipPathUnits="userSpaceOnUse"
       id="clipPath1609-7">
      <path
         id="path1611-5"
         d="m 252,116 28,-28 v -8 h -36 v 36 z"
         style="fill:#e74747;stroke:none;stroke-width:0.25px;stroke-linecap:butt;stroke-linejoin:miter;stroke-opacity:1" />
    </clipPath>
    <linearGradient
       id="linearGradient4485">
      <stop
         id="stop4487"
         offset="0"
         style="stop-color:#fcf8ee;stop-opacity:1;" />
      <stop
         style="stop-color:#edd7a3;stop-opacity:1;"
         offset="0.25891709"
         id="stop4489" />
      <stop
         id="stop4491"
         offset="0.73756379"
         style="stop-color:#9f874e;stop-opacity:1;" />
      <stop
         id="stop4493"
         offset="1"
         style="stop-color:#433514;stop-opacity:1;" />
    </linearGradient>
    <linearGradient
       y2="125.70648"
       x2="125.7303"
       y1="119.8626"
       x1="-3.3464088"
       gradientTransform="translate(0.23177865,-7.8804828)"
       gradientUnits="userSpaceOnUse"
       id="linearGradient1637"
       xlink:href="#linearGradient4485" />
    <linearGradient
       id="linearGradient3926">
      <stop
         style="stop-color:#fcf8ee;stop-opacity:1;"
         offset="0"
         id="stop3928" />
      <stop
         id="stop3930"
         offset="0.15679707"
         style="stop-color:#edd7a3;stop-opacity:1;" />
      <stop
         style="stop-color:#9f874e;stop-opacity:1;"
         offset="0.86149192"
         id="stop3932" />
      <stop
         style="stop-color:#433514;stop-opacity:1;"
         offset="1"
         id="stop3934" />
    </linearGradient>
    <linearGradient
       y2="125.70648"
       x2="125.7303"
       y1="122.05794"
       x1="24.717062"
       gradientTransform="translate(0.23177865,-7.8804828)"
       gradientUnits="userSpaceOnUse"
       id="linearGradient1655"
       xlink:href="#linearGradient3926" />
    <linearGradient
       id="linearGradient4451">
      <stop
         id="stop4453"
         offset="0"
         style="stop-color:#fcf8ee;stop-opacity:1;" />
      <stop
         style="stop-color:#edd7a3;stop-opacity:1;"
         offset="0.46387479"
         id="stop4455" />
      <stop
         id="stop4457"
         offset="0.84934789"
         style="stop-color:#9f874e;stop-opacity:1;" />
      <stop
         id="stop4459"
         offset="1"
         style="stop-color:#433514;stop-opacity:1;" />
    </linearGradient>
    <linearGradient
       id="linearGradient6916">
      <stop
         id="stop6918"
         offset="0"
         style="stop-color:#fceeee;stop-opacity:1;" />
      <stop
         style="stop-color:#eda3a3;stop-opacity:1;"
         offset="0.42655981"
         id="stop6920" />
      <stop
         id="stop6922"
         offset="0.81682128"
         style="stop-color:#9f4e4e;stop-opacity:1;" />
      <stop
         id="stop6924"
         offset="1"
         style="stop-color:#431414;stop-opacity:1;" />
    </linearGradient>
    <linearGradient
       id="linearGradient6930">
      <stop
         id="stop6932"
         offset="0"
         style="stop-color:#000000;stop-opacity:1;" />
      <stop
         id="stop6934"
         offset="1"
         style="stop-color:#000000;stop-opacity:0;" />
    </linearGradient>
    <linearGradient
       id="linearGradient5623">
      <stop
         style="stop-color:#fcf8ee;stop-opacity:1;"
         offset="0"
         id="stop5625" />
      <stop
         id="stop5627"
         offset="0.60472542"
         style="stop-color:#edd7a3;stop-opacity:1;" />
      <stop
         style="stop-color:#9f874e;stop-opacity:1;"
         offset="0.8923651"
         id="stop5629" />
      <stop
         style="stop-color:#433514;stop-opacity:1;"
         offset="1"
         id="stop5631" />
    </linearGradient>
    <linearGradient
       y2="125.70648"
       x2="125.7303"
       y1="121.15327"
       x1="62.968739"
       gradientTransform="translate(0.69533676,-6.7215887)"
       gradientUnits="userSpaceOnUse"
       id="linearGradient1713"
       xlink:href="#linearGradient4451" />
    <linearGradient
       y2="186.46182"
       x2="113.52237"
       y1="236.63333"
       x1="112.82332"
       gradientTransform="translate(0,-7.6487043)"
       gradientUnits="userSpaceOnUse"
       id="linearGradient1737"
       xlink:href="#linearGradient6916" />
    <linearGradient
       gradientTransform="translate(6,-34)"
       gradientUnits="userSpaceOnUse"
       y2="226.65694"
       x2="116.42355"
       y1="226.80339"
       x1="122.125"
       id="linearGradient1761"
       xlink:href="#linearGradient6930" />
    <linearGradient
       y2="125.72036"
       x2="128.40219"
       y1="125.72036"
       x1="100.07558"
       gradientTransform="translate(0,-8.57582)"
       gradientUnits="userSpaceOnUse"
       id="linearGradient1777"
       xlink:href="#linearGradient5623" />
  </defs>
  <metadata
     id="metadata4">
    <rdf:RDF>
      <cc:Work
         rdf:about="">
        <dc:format>image/svg+xml</dc:format>
        <dc:type
           rdf:resource="http://purl.org/dc/dcmitype/StillImage" />
        <dc:creator>
          <cc:Agent>
            <dc:title>GNOME Design Team</dc:title>
          </cc:Agent>
        </dc:creator>
        <dc:source />
        <dc:title>Adwaita Icon Template</dc:title>
        <dc:subject>
          <rdf:Bag />
        </dc:subject>
        <dc:date />
        <dc:rights>
          <cc:Agent>
            <dc:title />
          </cc:Agent>
        </dc:rights>
        <dc:publisher>
          <cc:Agent>
            <dc:title />
          </cc:Agent>
        </dc:publisher>
        <dc:identifier />
        <dc:relation />
        <dc:language />
        <dc:coverage />
        <dc:description />
        <dc:contributor>
          <cc:Agent>
            <dc:title />
          </cc:Agent>
        </dc:contributor>
        <cc:license
           rdf:resource="http://creativecommons.org/licenses/by-sa/4.0/" />
      </cc:Work>
      <cc:License
         rdf:about="http://creativecommons.org/licenses/by-sa/4.0/">
        <cc:permits
           rdf:resource="http://creativecommons.org/ns#Reproduction" />
        <cc:permits
           rdf:resource="http://creativecommons.org/ns#Distribution" />
        <cc:requires
           rdf:resource="http://creativecommons.org/ns#Notice" />
        <cc:requires
           rdf:resource="http://creativecommons.org/ns#Attribution" />
        <cc:permits
           rdf:resource="http://creativecommons.org/ns#DerivativeWorks" />
        <cc:requires
           rdf:resource="http://creativecommons.org/ns#ShareAlike" />
      </cc:License>
    </rdf:RDF>
  </metadata>
  <g
     id="layer8"
     style="display:inline">
    <g
       id="layer14"
       style="display:inline;enable-background:new">
      <path
         style="display:none;fill:#f4d7d7;stroke:#f4d7d7;stroke-width:8;stroke-linecap:round;stroke-linejoin:round;stroke-dasharray:none;enable-background:new"
         d="M 64,28 C 58,22 54,18 38,18 22,18 10,34 10,54 c 0,20 12,32 24,40 6,4 20,16 30,24 C 76,108 81.820045,101.69076 94,94 106.17996,86.309242 118,74 118,54 118,34 104,18 88,18 72,18 64,28 64,28 Z"
         id="path68" />
      <path
         style="display:inline;fill:#ffd5d5;fill-opacity:1;stroke:none;stroke-width:4;stroke-linecap:round;stroke-linejoin:round;stroke-dasharray:none;stroke-opacity:1;enable-background:new"
         d="m 18.000005,38 c -4,0 -7.996177,8.00388 -8.000005,12 v 16 c 0,4 4,8 8,8 h 8 l 0.0782,11.335957 C 26.078197,89.335957 30,92 34,92 h 14 l 2,10 c 0,4 4,10 8,10 h 12 c 4,0 7.996172,-6.00388 8,-10 L 80,92 91.996172,91.9961 C 96,92 100,88 100,84 V 72 l 7.93059,-4e-6 C 112,72 116,68 116,64 V 48 c 0,-4 -4,-8 -8,-8 h -8 L 98,36 C 96,32 92,20 88,20 H 76 C 72,20 66,30 66,34 V 46 H 62 L 59.962907,34.012486 C 59.962907,30.012486 58,20 54,20 L 36.037093,19.98751 C 32.037093,19.98751 26,26 26,30 v 8 z"
         id="path95" />
    </g>
    <g
       id="layer13"
       style="display:inline">
      <path
         style="display:inline;fill:none;stroke:#d35f5f;stroke-width:4;stroke-linecap:round;stroke-linejoin:round;stroke-dasharray:none;stroke-opacity:1;enable-background:new"
         d="m 26,66 v 14 c 0,8 6,14 14,14 H 50 M 74,72.47468 V 70 C 74,64 70,58 62,58 H 48"
         id="path106" />
      <path
         style="display:inline;fill:none;stroke:#d35f5f;stroke-width:4;stroke-linecap:round;stroke-linejoin:round;stroke-dasharray:none;stroke-opacity:1;enable-background:new"
         d="M 46,40 C 44,38 37.715545,38 32.715545,38 H 22 c -8,0 -12,4 -12,12 v 16 c 0,4 4,8 8,8 h 8"
         id="path104" />
      <path
         id="path105"
         style="display:inline;fill:none;stroke:#d35f5f;stroke-width:4;stroke-linecap:round;stroke-linejoin:round;stroke-dasharray:none;stroke-opacity:1;enable-background:new"
         d="M 24.715545,38 26,28 c 0,-4 4,-8 8,-8 h 14 c 8,0 14,6 14,14 v 10 c 0,8 -5.173195,14 -14,14 -2,0 -6.888502,-0.218319 -9.59103,-1.746931" />
      <path
         id="path107"
         style="display:inline;fill:none;stroke:#d35f5f;stroke-width:4;stroke-linecap:round;stroke-linejoin:round;stroke-dasharray:none;stroke-opacity:1;enable-background:new"
         d="m 96,58 c 2,-2.906849 2,-6 2,-9 V 34 C 98,26 92,20 84,20 h -4 c -8,0 -14,6 -14,14 v 16 c 0,4 4,8 8,8" />
      <path
         id="path108"
         style="display:inline;fill:none;stroke:#d35f5f;stroke-width:4;stroke-linecap:round;stroke-linejoin:round;stroke-dasharray:none;stroke-opacity:1;enable-background:new"
         d="M 98,38.0039 108,38 c 6,0 9.99807,6.000001 10,10 0,0 -0.003,8.002583 -0.004,12.003875 C 117.99613,68.003875 108,74 100,74 H 98 M 82,50.792966 c 0,-8 -0.07963,-9.740247 0.618884,-12.792966" />
      <path
         id="path109"
         style="display:inline;fill:none;stroke:#d35f5f;stroke-width:4;stroke-linecap:round;stroke-linejoin:round;stroke-dasharray:none;stroke-opacity:1;enable-background:new"
         d="m 84,94 c -2,0 -6,2 -6,6 0,8 -6,14 -14,14 -8,0 -14,-6 -14,-14 0,-2 2,-8 4,-10" />
      <path
         style="display:inline;fill:none;fill-opacity:1;stroke:#d35f5f;stroke-width:4;stroke-linecap:round;stroke-linejoin:round;stroke-dasharray:none;stroke-opacity:1;enable-background:new"
         d="m 82,50 c 0,4 -2,8 -8,8 m -20,0 c -8,0 -12,6 -12,12 l 0.008,7.474504"
         id="path111" />
      <path
         style="display:inline;fill:none;stroke:#d35f5f;stroke-width:4;stroke-linecap:round;stroke-linejoin:round;stroke-dasharray:none;stroke-opacity:1;enable-background:new"
         d="m 30,54 c 4,0 12,2 12,8 v 8"
         id="path112" />
      <path
         style="display:inline;fill:none;stroke:#d35f5f;stroke-width:4;stroke-linecap:round;stroke-linejoin:round;stroke-dasharray:none;stroke-opacity:1;enable-background:new"
         d="m 34,38 c -4,0 -8,-4 -8,-8"
         id="path114" />
      <path
         style="display:inline;fill:none;stroke:#d35f5f;stroke-width:4;stroke-linecap:round;stroke-linejoin:round;stroke-dasharray:none;stroke-opacity:1;enable-background:new"
         d="m 26,66 c 0,4 -4,8 -8,8"
         id="path119" />
      <path
         style="display:inline;fill:none;stroke:#d35f5f;stroke-width:4;stroke-linecap:round;stroke-linejoin:round;stroke-dasharray:none;stroke-opacity:1;enable-background:new"
         d="m 98,46 c 0,-4 4,-8 8,-8"
         id="path120" />
      <path
         style="display:inline;fill:none;stroke:#d35f5f;stroke-width:4;stroke-linecap:round;stroke-linejoin:round;stroke-dasharray:none;stroke-opacity:1;enable-background:new"
         d="m 96,74 c 2.78728,0.09324 6,2 5.97341,6.917174"
         id="path121" />
      <path
         style="display:inline;fill:none;stroke:#d35f5f;stroke-width:4;stroke-linecap:round;stroke-linejoin:round;stroke-dasharray:none;stroke-opacity:1;enable-background:new"
         d="m 74,92 c 2,1.109138 3.762038,1.79266 6,2 h 8 c 8,0 14,-6 14,-14 v -6"
         id="path125" />
      <path
         style="display:inline;fill:none;stroke:#d35f5f;stroke-width:4;stroke-linecap:round;stroke-linejoin:round;stroke-dasharray:none;stroke-opacity:1;enable-background:new"
         d="m 42,94 c 4,0 8,4 8,8"
         id="path126" />
      <path
         style="display:inline;fill:none;stroke:#d35f5f;stroke-width:4;stroke-linecap:round;stroke-linejoin:round;stroke-dasharray:none;stroke-opacity:1;enable-background:new"
         d="m 25.972696,28.981251 c -0.685281,4.829865 -4.360269,8.374365 -8.313451,9.503955"
         id="path128" />
      <path
         style="display:inline;fill:none;stroke:#d35f5f;stroke-width:4;stroke-linecap:round;stroke-linejoin:round;stroke-dasharray:none;stroke-opacity:1;enable-background:new"
         d="M 108,38 C 102.60915,36.939123 99.281555,33.696645 97.4928,30"
         id="path129" />
      <path
         style="display:inline;fill:none;stroke:#d35f5f;stroke-width:4;stroke-linecap:round;stroke-linejoin:round;stroke-dasharray:none;stroke-opacity:1;enable-background:new"
         d="m 18,74 c 4,0 8,4 8,8"
         id="path130" />
      <path
         style="display:inline;fill:none;stroke:#d35f5f;stroke-width:4;stroke-linecap:round;stroke-linejoin:round;stroke-dasharray:none;stroke-opacity:1;enable-background:new"
         d="m 102,80 c 0.085,-2.963758 3.47977,-6.740282 6.38886,-7.885131"
         id="path131" />
      <path
         style="display:inline;fill:none;stroke:#d35f5f;stroke-width:4;stroke-linecap:round;stroke-linejoin:round;stroke-dasharray:none;stroke-opacity:1;enable-background:new"
         d="m 74,68 c 0,-8 2.98554,-9.011472 6,-12"
         id="path133" />
      <path
         style="display:inline;fill:none;stroke:#d35f5f;stroke-width:4;stroke-linecap:round;stroke-linejoin:round;stroke-dasharray:none;stroke-opacity:1;enable-background:new"
         d="m 74,92 c 4,2 4,4 4,8"
         id="path13" />
      <path
         style="display:inline;fill:none;stroke:#d35f5f;stroke-width:4;stroke-linecap:round;stroke-linejoin:round;stroke-dasharray:none;stroke-opacity:1;enable-background:new"
         d="m 58,76 v 6 c 0,6 -6,12 -12,12"
         id="path31" />
      <path
         style="display:inline;fill:none;stroke:#d35f5f;stroke-width:4;stroke-linecap:round;stroke-linejoin:round;stroke-dasharray:none;stroke-opacity:1;enable-background:new"
         d="m 82,80 c -4,0 -8,-3.52532 -8,-7.52532"
         id="path67" />
      <path
         style="display:inline;fill:none;stroke:#d35f5f;stroke-width:4;stroke-linecap:round;stroke-linejoin:round;stroke-dasharray:none;stroke-opacity:1;enable-background:new"
         d="m 72.805463,60.47468 c -1,0 -7.792451,-3.497848 -8.805463,-4.47468 -1.013012,-0.976832 1.231989,-2.185136 0.381306,-3.654245 -0.850683,-1.46911 1.652731,-5.387746 -0.347269,-5.651759 C 62.624309,46.507903 60,55.412719 60,55.412719"
         id="path30" />
    </g>
  </g>
</svg>
